# Blender 5.2.0 LTS
# www.blender.org
mtllib screen.mtl
o Cube
v -0.000000 -0.925000 1.375000
v -0.000000 0.925000 1.375000
v -0.125000 -1.050000 1.500000
v -0.125000 1.050000 1.500000
v -0.000000 -0.925000 -1.375000
v -0.000000 0.925000 -1.375000
v -0.125000 -1.050000 -1.500000
v -0.125000 1.050000 -1.500000
v 0.125000 -1.050000 1.500000
v 0.125000 1.050000 1.500000
v 0.125000 1.050000 -1.500000
v 0.125000 -1.050000 -1.500000
vn -0.0000 -0.0000 1.0000
vn -1.0000 -0.0000 -0.0000
vn -0.0000 -0.0000 -1.0000
vn 1.0000 -0.0000 -0.0000
vn -0.0000 -1.0000 -0.0000
vn -0.0000 1.0000 -0.0000
vn 0.7071 -0.0000 -0.7071
vn 0.7071 -0.0000 0.7071
vn 0.7071 0.7071 -0.0000
vn 0.7071 -0.7071 -0.0000
vt 0.375000 0.000000
vt 0.625000 0.000000
vt 0.625000 0.250000
vt 0.375000 0.250000
vt 0.625000 0.500000
vt 0.375000 0.500000
vt 0.625000 0.750000
vt 0.375000 0.750000
vt 0.389881 0.760417
vt 0.610119 0.760417
vt 0.610119 0.989583
vt 0.389881 0.989583
vt 0.125000 0.500000
vt 0.125000 0.750000
vt 0.875000 0.500000
vt 0.875000 0.750000
vt 0.625000 1.000000
vt 0.375000 1.000000
s 0
f 9/1/1 10/2/1 4/3/1 3/4/1
f 3/4/2 4/3/2 8/5/2 7/6/2
f 7/6/3 8/5/3 11/7/3 12/8/3
f 5/9/4 6/10/4 2/11/4 1/12/4
f 3/13/5 7/6/5 12/8/5 9/14/5
f 8/5/6 4/15/6 10/16/6 11/7/6
f 1/12/7 2/11/7 10/17/7 9/18/7
f 6/10/8 5/9/8 12/8/8 11/7/8
f 5/9/9 1/12/9 9/18/9 12/8/9
f 2/11/10 6/10/10 11/7/10 10/17/10
