# Blender 5.2.0 LTS
# www.blender.org
mtllib ship_interior.mtl
o table
v 0.000000 1.275000 5.000000
v 0.000000 1.275000 6.125000
v 0.795495 1.275000 5.795495
v 1.125000 1.275000 5.000000
v 0.795495 1.275000 4.204505
v 0.000000 1.275000 3.875000
v -0.795495 1.275000 4.204505
v -1.125000 1.275000 5.000000
v -0.795495 1.275000 5.795495
v 0.000000 -0.475000 5.000000
vn -0.0000 1.0000 -0.0000
vn 0.3290 -0.5106 0.7943
vn 0.7943 -0.5106 0.3290
vn 0.7943 -0.5106 -0.3290
vn 0.3290 -0.5106 -0.7943
vn -0.3290 -0.5106 -0.7943
vn -0.7943 -0.5106 -0.3290
vn -0.7943 -0.5106 0.3290
vn -0.3290 -0.5106 0.7943
vt 0.750000 0.250000
vt 0.750000 0.490000
vt 0.919706 0.419706
vt 0.250000 0.490000
vt 0.250000 0.250000
vt 0.419706 0.419706
vt 0.990000 0.250000
vt 0.490000 0.250000
vt 0.919706 0.080294
vt 0.419706 0.080294
vt 0.750000 0.010000
vt 0.250000 0.010000
vt 0.580294 0.080294
vt 0.080294 0.080294
vt 0.510000 0.250000
vt 0.010000 0.250000
vt 0.580294 0.419706
vt 0.080294 0.419706
s 0
usemtl table_mtl
f 1/1/1 2/2/1 3/3/1
f 2/4/2 10/5/2 3/6/2
f 1/1/1 3/3/1 4/7/1
f 3/6/3 10/5/3 4/8/3
f 1/1/1 4/7/1 5/9/1
f 4/8/4 10/5/4 5/10/4
f 1/1/1 5/9/1 6/11/1
f 5/10/5 10/5/5 6/12/5
f 1/1/1 6/11/1 7/13/1
f 6/12/6 10/5/6 7/14/6
f 1/1/1 7/13/1 8/15/1
f 7/14/7 10/5/7 8/16/7
f 1/1/1 8/15/1 9/17/1
f 8/16/8 10/5/8 9/18/8
f 1/1/1 9/17/1 2/2/1
f 9/18/9 10/5/9 2/4/9
o hull
v -5.000000 0.000000 -10.000000
v 5.000000 0.000000 -10.000000
v -5.000000 5.000000 -10.000000
v 5.000000 5.000000 -10.000000
v -6.000000 2.500000 -10.000000
v 6.000000 2.500000 -10.000000
v 5.000000 5.000000 -10.000000
v 5.000000 5.000000 10.000000
v 6.000000 2.500000 -9.999999
v 6.000000 2.500000 10.000000
v 5.000000 0.000000 -10.000000
v 5.000000 -0.000000 10.000000
v -5.000000 0.000000 -10.000000
v -5.000000 0.000000 10.000000
v -6.000000 2.500000 -10.000000
v -6.000000 2.500000 10.000000
v -5.000000 5.000000 -9.999999
v -5.000000 5.000000 10.000000
vn -0.0000 -0.0000 1.0000
vn -0.9285 -0.3714 -0.0000
vn -0.9285 0.3714 -0.0000
vn -0.0000 1.0000 -0.0000
vn 0.9285 0.3714 -0.0000
vn 0.9285 -0.3714 -0.0000
vn -0.0000 -1.0000 -0.0000
vt 0.291667 0.104167
vt 0.708333 0.104167
vt 0.708333 0.312500
vt 0.291667 0.312500
vt 0.250000 0.208333
vt 0.750000 0.208333
vt -0.187500 1.041667
vt -0.250000 1.041667
vt -0.250000 -0.208333
vt -0.187500 -0.208333
vt 1.250000 1.041667
vt 1.187500 1.041667
vt 1.187500 -0.208333
vt 1.250000 -0.208333
vt 0.562500 1.041667
vt 0.562500 -0.208333
vt 0.500000 1.041667
vt 0.500000 -0.208333
vt 0.437500 1.041667
vt 0.437500 -0.208333
s 0
usemtl hull_mtl
f 11/19/10 12/20/10 14/21/10 13/22/10
f 11/19/10 13/22/10 15/23/10
f 14/21/10 12/20/10 16/24/10
f 17/25/11 19/26/11 20/27/11 18/28/11
f 19/29/12 21/30/12 22/31/12 20/32/12
f 21/30/13 23/33/13 24/34/13 22/31/13
f 23/33/14 25/35/14 26/36/14 24/34/14
f 25/35/15 27/37/15 28/38/15 26/36/15
f 27/37/16 17/25/16 18/28/16 28/38/16
o cneter_screen
v -1.750000 2.250000 -9.125000
v -1.750000 4.750000 -9.125000
v -2.000000 2.000000 -10.000000
v -2.000000 5.000000 -10.000000
v 1.750000 2.250000 -9.125000
v 1.750000 4.750000 -9.125000
v 2.000000 2.000000 -10.000000
v 2.000000 5.000000 -10.000000
v -2.000000 2.000000 -9.000000
v -2.000000 5.000000 -9.000000
v 2.000000 5.000000 -9.000000
v 2.000000 2.000000 -9.000000
v -1.750000 2.250000 -9.125000
v -1.750000 4.750000 -9.125000
v 1.750000 4.750000 -9.125000
v 1.750000 2.250000 -9.125000
vn -1.0000 -0.0000 -0.0000
vn 1.0000 -0.0000 -0.0000
vn -0.0000 1.0000 -0.0000
vn -0.0000 -1.0000 -0.0000
vn 0.4472 -0.0000 0.8944
vn -0.4472 -0.0000 0.8944
vn -0.0000 0.4472 0.8944
vn -0.0000 -0.4472 0.8944
vn -0.0000 -0.0000 1.0000
vt 0.375000 0.000000
vt 0.625000 0.000000
vt 0.625000 0.250000
vt 0.375000 0.250000
vt 0.375000 0.500000
vt 0.625000 0.500000
vt 0.625000 0.750000
vt 0.375000 0.750000
vt 0.612500 0.987500
vt 0.387500 0.987500
vt 0.125000 0.500000
vt 0.125000 0.750000
vt 0.875000 0.500000
vt 0.875000 0.750000
vt 0.625000 1.000000
vt 0.375000 1.000000
vt 0.612500 0.762500
vt 0.387500 0.762500
s 0
usemtl screen_mtl
f 37/39/17 38/40/17 32/41/17 31/42/17
f 35/43/18 36/44/18 39/45/18 40/46/18
f 30/47/19 29/48/19 41/48/19 42/47/19
f 31/49/20 35/43/20 40/46/20 37/50/20
f 36/44/19 32/51/19 38/52/19 39/45/19
f 29/48/21 30/47/21 38/53/21 37/54/21
f 34/55/22 33/56/22 40/46/22 39/45/22
f 33/56/23 29/48/23 37/54/23 40/46/23
f 30/47/24 34/55/24 39/45/24 38/53/24
f 44/56/25 43/55/25 42/47/25 41/48/25
f 34/55/19 30/47/19 42/47/19 43/55/19
f 33/56/19 34/55/19 43/55/19 44/56/19
f 29/48/19 33/56/19 44/56/19 41/48/19
o dashboard
v -5.000000 0.000000 -8.000000
v -5.000000 0.000000 -10.000000
v -5.000000 2.000000 -10.000000
v 5.000000 0.000000 -8.000000
v 5.000000 0.000000 -10.000000
v 5.000000 2.000000 -10.000000
v -5.000000 1.250000 -8.000000
v -5.000000 2.000000 -8.750000
v 5.000000 2.000000 -8.750000
v 5.000000 1.250000 -8.000000
vn -0.0000 0.7071 0.7071
vn -0.0000 -0.0000 1.0000
vn -1.0000 -0.0000 -0.0000
vn -0.0000 1.0000 -0.0000
vn 1.0000 -0.0000 -0.0000
vt 0.625000 0.687500
vt 0.625000 1.000000
vt 0.531250 1.000000
vt 0.531250 0.750000
vt 0.375000 0.750000
vt 0.375000 1.000000
vt 0.375000 0.000000
vt 0.531250 0.000000
vt 0.625000 0.093750
vt 0.625000 0.250000
vt 0.375000 0.250000
vt 0.625000 0.500000
vt 0.875000 0.500000
vt 0.875000 0.656250
vt 0.375000 0.500000
s 0
usemtl dashboard_mtl
f 53/57/26 52/58/26 51/59/26 54/60/26
f 48/61/27 54/60/27 51/59/27 45/62/27
f 45/63/28 51/64/28 52/65/28 47/66/28 46/67/28
f 50/68/29 47/69/29 52/70/29 53/57/29
f 49/71/30 50/68/30 53/57/30 54/60/30 48/61/30
o wall
v 5.000000 -0.000000 10.000000
v -5.000000 -0.000000 10.000001
v 5.000000 5.000000 9.999999
v -5.000000 5.000000 10.000000
v 6.000000 2.500000 10.000000
v -6.000000 2.500000 10.000001
vn -0.0000 -0.0000 -1.0000
vt 0.083333 0.000000
vt 0.916667 0.000000
vt 0.916667 0.416667
vt 0.083333 0.416667
vt 0.000000 0.208333
vt 1.000000 0.208333
s 0
usemtl wall_mtl
f 55/72/31 56/73/31 58/74/31 57/75/31
f 55/72/31 57/75/31 59/76/31
f 58/74/31 56/73/31 60/77/31
o door
v -1.500000 0.000000 10.000000
v -1.250000 0.000000 9.500000
v 1.500000 0.000000 10.000000
v 1.250000 0.000000 9.500000
v -1.000000 4.000000 10.000000
v -1.500000 3.500000 10.000000
v -1.250000 3.396447 9.500000
v -0.896447 3.750000 9.500000
v 1.500000 3.500000 10.000000
v 1.000000 4.000000 10.000000
v 0.896447 3.750000 9.500000
v 1.250000 3.396447 9.500000
v 1.500000 0.000000 9.500000
v -1.500000 0.000000 9.500000
v -1.000000 4.000000 9.500000
v -1.500000 3.500000 9.500000
v 1.500000 3.500000 9.500000
v 1.000000 4.000000 9.500000
v 1.250000 0.000000 9.750000
v -1.250000 0.000000 9.750000
v -0.896447 3.750000 9.750000
v -1.250000 3.396447 9.750000
v 1.250000 3.396447 9.750000
v 0.896447 3.750000 9.750000
vn -0.7071 0.7071 -0.0000
vn 0.7071 0.7071 -0.0000
vn -1.0000 -0.0000 -0.0000
vn -0.0000 1.0000 -0.0000
vn 1.0000 -0.0000 -0.0000
vn -0.0000 -0.0000 -1.0000
vn 0.7071 -0.7071 -0.0000
vn -0.0000 -1.0000 -0.0000
vn -0.7071 -0.7071 -0.0000
vt 0.625000 0.000000
vt 0.625000 0.270833
vt 0.593750 0.250000
vt 0.593750 0.000000
vt 0.652778 0.486111
vt 0.652778 0.763889
vt 0.593750 0.750000
vt 0.593750 0.500000
vt 0.375000 0.000000
vt 0.375000 0.250000
vt 0.833333 0.500000
vt 0.833333 0.750000
vt 0.592437 0.483886
vt 0.390789 0.479222
vt 0.375000 0.500000
vt 0.375000 0.750000
vt 0.611049 0.287589
vt 0.587865 0.267551
vt 0.628549 0.467623
vt 0.390770 0.270855
s 0
usemtl door_mtl
f 65/78/32 75/79/32 76/80/32 66/81/32
f 78/82/33 70/83/33 69/84/33 77/85/33
f 61/86/34 66/81/34 76/80/34 74/87/34
f 78/82/35 75/88/35 65/89/35 70/83/35
f 72/90/34 64/91/34 79/91/34 83/90/34
f 73/92/36 77/85/36 69/84/36 63/93/36
f 68/94/37 67/95/37 76/80/37 75/79/37
f 72/90/37 71/96/37 78/82/37 77/85/37
f 67/95/37 62/97/37 74/87/37 76/80/37
f 71/96/37 68/94/37 75/79/37 78/82/37
f 64/91/37 72/90/37 77/85/37 73/92/37
f 80/97/37 82/95/37 81/94/37 84/96/37 83/90/37 79/91/37
f 62/97/36 67/95/36 82/95/36 80/97/36
f 67/95/38 68/94/38 81/94/38 82/95/38
f 68/94/39 71/96/39 84/96/39 81/94/39
f 71/96/40 72/90/40 83/90/40 84/96/40
o bulkhead
v -4.500000 0.250000 0.200000
v -4.500000 4.750000 0.200000
v -4.500000 0.250000 -0.300000
v -4.500000 4.750000 -0.300000
v 4.500000 0.250000 0.200000
v 4.500000 4.750000 0.200000
v 4.500000 0.250000 -0.300000
v 4.500000 4.750000 -0.300000
v -5.000000 0.000000 0.200000
v -5.000000 5.000000 0.200000
v -5.000000 5.000000 -0.300000
v -5.000000 0.000000 -0.300000
v 5.000000 0.000000 -0.300000
v 5.000000 5.000000 -0.300000
v 5.000000 5.000000 0.200000
v 5.000000 0.000000 0.200000
v -4.500000 4.750000 0.200000
v -4.500000 0.250000 0.200000
v 4.500000 0.250000 0.200000
v 4.500000 4.750000 0.200000
v -6.000000 2.500000 0.200000
v -6.000000 2.500000 -0.300000
v -5.000000 2.500000 0.200000
v -5.000000 2.500000 -0.300000
v -5.000000 2.500000 0.200000
v 6.000000 2.500000 -0.300000
v 6.000000 2.500000 0.200000
v 5.000000 2.500000 -0.300000
v 5.000000 2.500000 0.200000
v 5.000000 2.500000 0.200000
vn -0.9762 0.2169 -0.0000
vn -0.0000 -0.0000 1.0000
vn -0.0000 -0.0000 -1.0000
vn -0.0000 1.0000 -0.0000
vn -0.0000 -1.0000 -0.0000
vn 0.9762 -0.2169 -0.0000
vn 0.9762 0.2169 -0.0000
vn -0.9762 -0.2169 -0.0000
vt 0.500000 0.487500
vt 0.400000 0.487500
vt 0.500000 0.987500
vt 0.600000 0.987500
vt 0.625000 1.000000
vt 0.500000 1.000000
vt 0.500000 0.262500
vt 0.400000 0.262500
vt 0.375000 0.250000
vt 0.500000 0.250000
vt 0.375000 0.500000
vt 0.600000 0.487500
vt 0.600000 0.262500
vt 0.625000 0.250000
vt 0.625000 0.500000
vt 0.500000 0.500000
vt 0.500000 0.762500
vt 0.400000 0.762500
vt 0.375000 0.750000
vt 0.500000 0.750000
vt 0.400000 0.987500
vt 0.375000 1.000000
vt 0.600000 0.762500
vt 0.625000 0.750000
s 0
usemtl bulkhead_mtl
f 112/98/41 91/99/41 103/99/41 114/98/41
f 107/100/42 86/101/42 94/102/42 105/103/42
f 108/104/43 87/105/43 96/106/43 106/107/43
f 87/105/43 91/99/43 97/108/43 96/106/43
f 92/109/43 88/110/43 95/111/43 98/112/43
f 112/98/43 92/109/43 98/112/43 110/113/43
f 113/114/42 89/115/42 100/116/42 111/117/42
f 89/115/42 85/118/42 93/119/42 100/116/42
f 86/101/42 90/120/42 99/121/42 94/102/42
f 91/99/44 87/105/44 102/105/44 103/99/44
f 88/110/45 92/109/45 104/109/45 101/110/45
f 108/104/46 88/110/46 101/110/46 109/104/46
f 87/105/47 108/104/47 109/104/47 102/105/47
f 88/110/43 108/104/43 106/107/43 95/111/43
f 85/118/42 107/100/42 105/103/42 93/119/42
f 90/120/42 113/114/42 111/117/42 99/121/42
f 91/99/43 112/98/43 110/113/43 97/108/43
f 92/109/48 112/98/48 114/98/48 104/109/48
