# Blender 5.2.0 LTS
# www.blender.org
mtllib ship_body.mtl
o Cube
v -5.000000 2.600000 10.000000
v -2.500000 9.900000 7.500000
v -5.000000 2.600000 -10.000000
v -2.500000 9.900000 -7.500000
v 5.000000 2.600000 10.000000
v 2.500000 9.900000 7.500000
v 5.000000 2.600000 -10.000000
v 2.500000 9.900000 -7.500000
v -5.000000 7.400000 10.000000
v -5.000000 7.400000 -10.000000
v 5.000000 7.400000 -10.000000
v 5.000000 7.400000 10.000000
v -2.500000 0.100000 -7.500000
v 2.500000 0.100000 -7.500000
v 2.500000 0.100000 7.500000
v -2.500000 0.100000 7.500000
vn -1.0000 -0.0000 -0.0000
vn -0.0000 -0.0000 -1.0000
vn 1.0000 -0.0000 -0.0000
vn -0.0000 -0.0000 1.0000
vn -0.0000 -1.0000 -0.0000
vn -0.0000 1.0000 -0.0000
vn -0.7071 0.7071 -0.0000
vn -0.0000 0.7071 -0.7071
vn 0.7071 0.7071 -0.0000
vn -0.0000 0.7071 0.7071
vn -0.0000 -0.7071 -0.7071
vn 0.7071 -0.7071 -0.0000
vn -0.0000 -0.7071 0.7071
vn -0.7071 -0.7071 -0.0000
vt 0.160000 0.666667
vt 0.000000 0.666667
vt 0.000000 -0.000000
vt 0.160000 -0.000000
vt 0.160000 1.000000
vt 0.000000 1.000000
vt -0.000000 0.666667
vt 0.160000 0.666667
vt 0.320000 0.666667
vt 0.160000 0.666667
vt 0.160000 -0.000000
vt 0.320000 -0.000000
vt 0.320000 1.000000
vt 0.160000 1.000000
vt 0.160000 0.666667
vt 0.958071 0.500000
vt 0.791405 0.500000
vt 0.791405 0.000000
vt 0.958071 0.000000
vt 0.958071 1.000000
vt 0.791405 1.000000
vt 0.320000 0.583333
vt 0.320000 0.083333
vt 0.437851 0.000000
vt 0.437851 0.666667
vt 0.639036 0.819036
vt 0.472369 0.819036
vt 0.389036 0.701184
vt 0.722369 0.701184
vt 0.437851 0.583333
vt 0.437851 0.083333
vt 0.555702 0.000000
vt 0.555702 0.666667
vt 0.639036 0.826184
vt 0.472369 0.826184
vt 0.389036 0.708333
vt 0.722369 0.708333
vt 0.722369 0.958333
vt 0.389036 0.958333
vt 0.472369 0.840482
vt 0.639036 0.840482
vt 0.555702 0.666667
vt 0.555702 0.000000
vt 0.673554 0.083333
vt 0.673554 0.583333
vt 0.722369 0.965482
vt 0.389036 0.965482
vt 0.472369 0.847631
vt 0.639036 0.847631
vt 0.673554 0.666667
vt 0.673554 0.000000
vt 0.791405 0.083333
vt 0.791405 0.583333
s 0
usemtl hull
f 1/1/1 9/2/1 10/3/1 3/4/1
f 3/5/2 10/6/2 11/7/2 7/8/2
f 7/9/3 11/10/3 12/11/3 5/12/3
f 5/13/4 12/14/4 9/15/4 1/9/4
f 13/16/5 14/17/5 15/18/5 16/19/5
f 8/20/6 4/21/6 2/17/6 6/16/6
f 2/22/7 4/23/7 10/24/7 9/25/7
f 4/26/8 8/27/8 11/28/8 10/29/8
f 8/30/9 6/31/9 12/32/9 11/33/9
f 6/34/10 2/35/10 9/36/10 12/37/10
f 3/38/11 7/39/11 14/40/11 13/41/11
f 7/42/12 5/43/12 15/44/12 14/45/12
f 5/46/13 1/47/13 16/48/13 15/49/13
f 1/50/14 3/51/14 13/52/14 16/53/14
